<?xml version="1.0" standalone="no"?>
<!DOCTYPE svg PUBLIC "-//W3C//DTD SVG 20010904//EN"
 "http://www.w3.org/TR/2001/REC-SVG-20010904/DTD/svg10.dtd">
<svg version="1.0" xmlns="http://www.w3.org/2000/svg"
 width="616.000000pt" height="616.000000pt" viewBox="0 0 616.000000 616.000000"
 preserveAspectRatio="xMidYMid meet">
<metadata>
Created by potrace 1.11, written by Peter Selinger 2001-2013
</metadata>
<g transform="translate(0.000000,616.000000) scale(0.100000,-0.100000)"
fill="#000000" stroke="none">
<path d="M3055 6146 c-11 -7 -38 -24 -60 -36 -99 -55 -220 -125 -225 -130 -3
-3 -23 -14 -45 -25 -22 -11 -42 -23 -45 -26 -3 -3 -17 -12 -31 -20 -59 -32
-145 -80 -159 -89 -13 -9 -246 -143 -353 -204 -23 -13 -71 -40 -107 -61 -36
-21 -85 -49 -110 -63 -25 -13 -49 -28 -55 -32 -5 -5 -37 -23 -70 -41 -33 -18
-62 -35 -65 -38 -3 -3 -21 -14 -40 -23 -38 -18 -92 -50 -100 -58 -3 -3 -19
-12 -35 -21 -17 -8 -106 -60 -200 -114 -93 -54 -186 -107 -205 -118 -19 -10
-76 -44 -127 -73 -50 -30 -96 -54 -102 -54 -6 0 -11 -4 -11 -8 0 -4 -19 -18
-42 -30 -24 -12 -56 -30 -73 -40 -16 -9 -77 -44 -135 -77 -58 -32 -107 -62
-110 -65 -3 -3 -16 -11 -30 -18 -14 -7 -43 -22 -65 -35 l-40 -22 0 -1543 0
-1543 30 -17 c17 -9 31 -20 33 -24 2 -5 8 -8 12 -8 9 0 107 -54 160 -88 14 -9
28 -15 33 -14 4 1 7 -3 7 -8 0 -6 4 -10 9 -10 8 0 125 -66 241 -136 36 -22 81
-48 100 -57 19 -10 60 -33 90 -52 30 -18 75 -44 100 -57 25 -13 47 -25 50 -29
9 -10 152 -89 161 -89 5 0 9 -4 9 -10 0 -5 4 -10 9 -10 6 0 76 -39 158 -86 81
-47 177 -102 213 -122 36 -19 67 -38 70 -41 3 -3 21 -15 40 -25 59 -32 226
-128 305 -175 17 -10 50 -29 75 -43 69 -39 110 -62 168 -97 29 -17 57 -31 62
-31 6 0 10 -4 10 -10 0 -5 4 -10 9 -10 6 0 81 -41 168 -91 87 -51 174 -101
193 -112 19 -11 49 -28 65 -38 74 -47 87 -49 125 -26 19 11 44 26 55 31 11 6
22 13 25 16 3 3 23 14 45 25 22 11 42 22 45 25 11 11 46 31 73 41 15 6 27 15
27 20 0 5 4 9 9 9 5 0 66 33 135 72 69 40 139 80 154 88 15 8 29 17 32 20 3 3
21 13 40 24 49 26 138 77 485 279 66 38 161 92 210 121 50 28 98 55 107 61 9
5 41 23 70 39 29 15 60 34 69 42 8 8 21 14 27 14 6 0 17 6 24 13 7 6 31 21 53
32 22 11 47 25 55 31 8 6 35 23 60 36 111 61 216 123 222 133 4 5 8 7 8 3 0
-5 32 12 70 37 39 25 73 45 75 45 8 0 359 203 365 210 3 4 24 15 47 26 l42 19
1 1548 c0 1006 -3 1547 -10 1547 -5 0 -38 17 -72 38 -35 21 -70 41 -78 45 -8
4 -33 18 -55 31 -22 14 -62 37 -90 52 -27 14 -62 35 -77 45 -14 11 -29 19 -32
19 -3 0 -39 20 -79 45 -41 25 -77 45 -80 45 -3 0 -49 27 -104 60 -54 33 -104
60 -110 60 -7 0 -13 5 -13 10 0 6 -7 10 -15 10 -8 0 -15 5 -15 10 0 6 -9 10
-20 10 -11 0 -20 4 -20 9 0 5 -10 13 -22 17 -13 4 -25 10 -28 13 -8 10 -311
181 -321 181 -5 0 -9 3 -9 8 0 4 -21 18 -47 32 -27 13 -50 27 -53 30 -3 3 -24
14 -47 25 -24 11 -43 23 -43 28 0 4 -4 7 -9 7 -4 0 -46 22 -92 50 -46 27 -95
54 -108 60 -13 6 -35 19 -50 29 -14 10 -48 31 -76 46 -65 35 -372 213 -405
234 -14 8 -27 16 -30 16 -4 1 -90 50 -130 75 -44 28 -329 190 -333 190 -1 0
-11 -6 -22 -14z"/>
</g>
</svg>
